{
    "asset" : {
        "generator" : "Khronos glTF Blender I/O v1.1.45",
        "version" : "2.0"
    },
    "scene" : 0,
    "scenes" : [
        {
            "name" : "Scene",
            "nodes" : [
                2
            ]
        }
    ],
    "nodes" : [
        {
            "mesh" : 0,
            "name" : "Object_1",
            "scale" : [
                0.10000000149011612,
                0.10000000149011612,
                0.10000000149011612
            ]
        },
        {
            "children" : [
                0
            ],
            "name" : "Base"
        },
        {
            "children" : [
                1
            ],
            "name" : "1924",
            "translation" : [
                0,
                -9.849227905273438,
                0
            ]
        }
    ],
    "materials" : [
        {
            "doubleSided" : true,
            "emissiveFactor" : [
                0,
                0,
                0
            ],
            "name" : "Custom",
            "pbrMetallicRoughness" : {
                "baseColorTexture" : {
                    "index" : 0,
                    "texCoord" : 0
                },
                "metallicFactor" : 0,
                "roughnessFactor" : 0.5527864098548889
            }
        }
    ],
    "meshes" : [
        {
            "name" : "Object_1",
            "primitives" : [
                {
                    "attributes" : {
                        "POSITION" : 0,
                        "NORMAL" : 1,
                        "TEXCOORD_0" : 2
                    },
                    "indices" : 3,
                    "material" : 0
                }
            ]
        }
    ],
    "textures" : [
        {
            "source" : 0
        }
    ],
    "images" : [
        {
            "mimeType" : "image/png",
            "name" : "Data - Pr_9a12d2b-Data - Pr_9a12d2b",
            "uri" : "Data%20-%20Pr_9a12d2b-Data%20-%20Pr_9a12d2b.png"
        }
    ],
    "accessors" : [
        {
            "bufferView" : 0,
            "componentType" : 5126,
            "count" : 1433854,
            "max" : [
                799,
                184.556396484375,
                800
            ],
            "min" : [
                -400,
                118.41480255126953,
                -400
            ],
            "type" : "VEC3"
        },
        {
            "bufferView" : 1,
            "componentType" : 5126,
            "count" : 1433854,
            "type" : "VEC3"
        },
        {
            "bufferView" : 2,
            "componentType" : 5126,
            "count" : 1433854,
            "type" : "VEC2"
        },
        {
            "bufferView" : 3,
            "componentType" : 5125,
            "count" : 8598024,
            "type" : "SCALAR"
        }
    ],
    "bufferViews" : [
        {
            "buffer" : 0,
            "byteLength" : 17206248,
            "byteOffset" : 0
        },
        {
            "buffer" : 0,
            "byteLength" : 17206248,
            "byteOffset" : 17206248
        },
        {
            "buffer" : 0,
            "byteLength" : 11470832,
            "byteOffset" : 34412496
        },
        {
            "buffer" : 0,
            "byteLength" : 34392096,
            "byteOffset" : 45883328
        }
    ],
    "buffers" : [
        {
            "byteLength" : 80275424,
            "uri" : "1924.bin"
        }
    ]
}
