{
    "asset" : {
        "generator" : "Khronos glTF Blender I/O v1.1.45",
        "version" : "2.0"
    },
    "scene" : 0,
    "scenes" : [
        {
            "name" : "Scene",
            "nodes" : [
                0,
                1,
                3,
                4,
                5,
                6,
                7
            ]
        }
    ],
    "nodes" : [
        {
            "name" : "Light",
            "rotation" : [
                0.16907575726509094,
                0.7558803558349609,
                -0.27217137813568115,
                0.570947527885437
            ],
            "translation" : [
                4.076245307922363,
                5.903861999511719,
                -1.0054539442062378
            ]
        },
        {
            "name" : "Camera",
            "rotation" : [
                0.483536034822464,
                0.33687159419059753,
                -0.20870360732078552,
                0.7804827094078064
            ],
            "translation" : [
                7.358891487121582,
                4.958309173583984,
                6.925790786743164
            ]
        },
        {
            "mesh" : 0,
            "name" : "Object_1",
            "scale" : [
                0.10000000149011612,
                0.10000000149011612,
                0.10000000149011612
            ],
            "translation" : [
                28.786096572875977,
                0,
                -5.974473476409912
            ]
        },
        {
            "children" : [
                2
            ],
            "name" : "Default",
            "translation" : [
                -7.0154805183410645,
                0,
                2.9419760704040527
            ]
        },
        {
            "name" : "Perspective",
            "rotation" : [
                0.19295580685138702,
                0.19295582175254822,
                0.46617037057876587,
                0.8415588140487671
            ],
            "translation" : [
                -1283.8873291015625,
                862.6984252929688,
                1081.69677734375
            ]
        },
        {
            "name" : "Top",
            "translation" : [
                533.810302734375,
                1374.0272216796875,
                235.60353088378906
            ]
        },
        {
            "name" : "Front",
            "rotation" : [
                0.5000000596046448,
                0.5,
                0.4999999403953552,
                0.4999999701976776
            ],
            "translation" : [
                0,
                0,
                132.50765991210938
            ]
        },
        {
            "name" : "Right",
            "rotation" : [
                -0.7071068286895752,
                0.7071067094802856,
                0,
                -3.090862321641907e-08
            ],
            "translation" : [
                132.50765991210938,
                0,
                0
            ]
        }
    ],
    "materials" : [
        {
            "doubleSided" : true,
            "emissiveFactor" : [
                0,
                0,
                0
            ],
            "name" : "Custom",
            "pbrMetallicRoughness" : {
                "baseColorTexture" : {
                    "index" : 0,
                    "texCoord" : 0
                },
                "metallicFactor" : 0.04545454680919647,
                "roughnessFactor" : 0.7436954975128174
            }
        }
    ],
    "meshes" : [
        {
            "name" : "Object_1",
            "primitives" : [
                {
                    "attributes" : {
                        "POSITION" : 0,
                        "NORMAL" : 1,
                        "TANGENT" : 2,
                        "TEXCOORD_0" : 3
                    },
                    "indices" : 4,
                    "material" : 0
                }
            ]
        }
    ],
    "textures" : [
        {
            "source" : 0
        }
    ],
    "images" : [
        {
            "mimeType" : "image/png",
            "name" : "1924-linearInterpolation-3km_f51d2dd-1924-linearInterpolation-3km_f51d2dd",
            "uri" : "1924-linearInterpolation-3km_f51d2dd-1924-linearInterpolation-3km_f51d2dd.png"
        }
    ],
    "accessors" : [
        {
            "bufferView" : 0,
            "componentType" : 5126,
            "count" : 100434,
            "max" : [
                2359.439697265625,
                721.994140625,
                2346.46533203125
            ],
            "min" : [
                -1500.8780517578125,
                19.181657791137695,
                -988.2587280273438
            ],
            "type" : "VEC3"
        },
        {
            "bufferView" : 1,
            "componentType" : 5126,
            "count" : 100434,
            "type" : "VEC3"
        },
        {
            "bufferView" : 2,
            "componentType" : 5126,
            "count" : 100434,
            "type" : "VEC4"
        },
        {
            "bufferView" : 3,
            "componentType" : 5126,
            "count" : 100434,
            "type" : "VEC2"
        },
        {
            "bufferView" : 4,
            "componentType" : 5125,
            "count" : 598404,
            "type" : "SCALAR"
        }
    ],
    "bufferViews" : [
        {
            "buffer" : 0,
            "byteLength" : 1205208,
            "byteOffset" : 0
        },
        {
            "buffer" : 0,
            "byteLength" : 1205208,
            "byteOffset" : 1205208
        },
        {
            "buffer" : 0,
            "byteLength" : 1606944,
            "byteOffset" : 2410416
        },
        {
            "buffer" : 0,
            "byteLength" : 803472,
            "byteOffset" : 4017360
        },
        {
            "buffer" : 0,
            "byteLength" : 2393616,
            "byteOffset" : 4820832
        }
    ],
    "buffers" : [
        {
            "byteLength" : 7214448,
            "uri" : "ravine.bin"
        }
    ]
}
